<?xml version="1.0" encoding="utf-8"?>
<!-- Generator: Adobe Illustrator 16.0.0, SVG Export Plug-In . SVG Version: 6.00 Build 0)  -->
<!DOCTYPE svg PUBLIC "-//W3C//DTD SVG 1.1//EN" "http://www.w3.org/Graphics/SVG/1.1/DTD/svg11.dtd">
<svg version="1.1" id="Capa_1" xmlns="http://www.w3.org/2000/svg" xmlns:xlink="http://www.w3.org/1999/xlink" x="0px" y="0px"
	 width="375px" height="375px" viewBox="0 42 375 375" enable-background="new 0 42 375 375" xml:space="preserve">
<path fill="#917BB9" d="M129.486,42H43.365C19.454,42,0,61.454,0,85.365v86.121c0,23.911,19.454,43.365,43.365,43.365h86.121
	c23.911,0,43.365-19.454,43.365-43.365V85.365C172.852,61.454,153.397,42,129.486,42z"/>
<path fill="#E77817" stroke="#FFFFFF" stroke-width="20" stroke-miterlimit="10" d="M143.555,171.486
	c0,7.757-6.312,14.068-14.068,14.068H43.365c-7.757,0-14.068-6.312-14.068-14.068V85.365c0-7.757,6.312-14.068,14.068-14.068h86.121
	c7.757,0,14.068,6.312,14.068,14.068V171.486z"/>
<path fill="#917BB9" d="M331.055,42h-84.961c-24.231,0-43.945,19.714-43.945,43.945v84.961c0,24.231,19.714,43.945,43.945,43.945
	h84.961c24.231,0,43.945-19.714,43.945-43.945V85.945C375,61.714,355.286,42,331.055,42z"/>
<path fill="#E77817" stroke="#FFFFFF" stroke-width="20" stroke-miterlimit="10" d="M345.703,170.906
	c0,8.077-6.571,14.648-14.648,14.648h-84.961c-8.077,0-14.648-6.571-14.648-14.648V85.945c0-8.077,6.571-14.648,14.648-14.648
	h84.961c8.077,0,14.648,6.571,14.648,14.648V170.906z"/>
<path fill="#917BB9" d="M129.486,244.148H43.365C19.454,244.148,0,263.603,0,287.514v86.121C0,397.546,19.454,417,43.365,417h86.121
	c23.911,0,43.365-19.454,43.365-43.365v-86.121C172.852,263.603,153.397,244.148,129.486,244.148z"/>
<path fill="#E77817" stroke="#FFFFFF" stroke-width="20" stroke-miterlimit="10" d="M143.555,373.635
	c0,7.757-6.312,14.068-14.068,14.068H43.365c-7.757,0-14.068-6.312-14.068-14.068v-86.121c0-7.757,6.312-14.068,14.068-14.068
	h86.121c7.757,0,14.068,6.312,14.068,14.068V373.635z"/>
<path fill="#917BB9" d="M331.055,244.148h-84.961c-24.231,0-43.945,19.714-43.945,43.945v84.961
	c0,24.231,19.714,43.945,43.945,43.945h84.961C355.286,417,375,397.286,375,373.055v-84.961
	C375,263.862,355.286,244.148,331.055,244.148z"/>
<path fill="#E77817" stroke="#FFFFFF" stroke-width="20" stroke-miterlimit="10" d="M345.703,373.055
	c0,8.077-6.571,14.648-14.648,14.648h-84.961c-8.077,0-14.648-6.571-14.648-14.648v-84.961c0-8.077,6.571-14.648,14.648-14.648
	h84.961c8.077,0,14.648,6.571,14.648,14.648V373.055z"/>
</svg>
